<svg width="24" height="24" viewBox="0 0 24 24" fill="none" xmlns="http://www.w3.org/2000/svg">
  <path
    d="M12.0009 2V4M4.93094 4.93L6.34094 6.34M20.0009 12H22.0009M19.0709 4.93L17.6609 6.34M15.9479 12.65C16.071 11.9045 15.9804 11.1394 15.6866 10.4432C15.3929 9.74711 14.9079 9.14841 14.2879 8.71648C13.668 8.28455 12.9384 8.03704 12.1836 8.00262C11.4288 7.96821 10.6796 8.14828 10.0229 8.522M13.0009 22H7.00094C6.05491 21.9998 5.12834 21.7312 4.32886 21.2255C3.52938 20.7197 2.88978 19.9975 2.48436 19.1427C2.07894 18.288 1.92433 17.3358 2.03849 16.3966C2.15265 15.4575 2.5309 14.5701 3.1293 13.8373C3.72769 13.1046 4.52169 12.5567 5.41906 12.2572C6.31643 11.9577 7.28035 11.9189 8.19888 12.1454C9.1174 12.3718 9.95283 12.8542 10.6081 13.5366C11.2634 14.2189 11.7117 15.0731 11.9009 16H13.0009C13.7966 16 14.5596 16.3161 15.1223 16.8787C15.6849 17.4413 16.0009 18.2044 16.0009 19C16.0009 19.7956 15.6849 20.5587 15.1223 21.1213C14.5596 21.6839 13.7966 22 13.0009 22Z"
    stroke="currentColor" stroke-width="2" stroke-linecap="round" stroke-linejoin="round"/>
</svg>
