<svg width="24" height="24" viewBox="0 0 24 24" fill="none" xmlns="http://www.w3.org/2000/svg">
  <path
    d="M8.49915 19C8.23393 19 7.97958 19.1054 7.79204 19.2929C7.60451 19.4804 7.49915 19.7348 7.49915 20V21C7.49915 21.2652 7.60451 21.5196 7.79204 21.7071C7.97958 21.8946 8.23393 22 8.49915 22C8.76437 22 9.01872 21.8946 9.20626 21.7071C9.39379 21.5196 9.49915 21.2652 9.49915 21V20C9.49915 19.7348 9.39379 19.4804 9.20626 19.2929C9.01872 19.1054 8.76437 19 8.49915 19ZM8.49915 14C8.23393 14 7.97958 14.1054 7.79204 14.2929C7.60451 14.4804 7.49915 14.7348 7.49915 15V16C7.49915 16.2652 7.60451 16.5196 7.79204 16.7071C7.97958 16.8946 8.23393 17 8.49915 17C8.76437 17 9.01872 16.8946 9.20626 16.7071C9.39379 16.5196 9.49915 16.2652 9.49915 16V15C9.49915 14.7348 9.39379 14.4804 9.20626 14.2929C9.01872 14.1054 8.76437 14 8.49915 14ZM20.9992 7H20.1992C20.0949 6.55156 19.9194 6.12277 19.6792 5.73L20.2392 5.17C20.403 4.9787 20.4886 4.73262 20.4789 4.48095C20.4691 4.22927 20.3648 3.99053 20.1867 3.81244C20.0086 3.63434 19.7699 3.53001 19.5182 3.52029C19.2665 3.51057 19.0205 3.59617 18.8292 3.76L18.2692 4.32C17.8764 4.0798 17.4476 3.90423 16.9992 3.8V3C16.9992 2.73478 16.8938 2.48043 16.7063 2.29289C16.5187 2.10536 16.2644 2 15.9992 2C15.7339 2 15.4796 2.10536 15.292 2.29289C15.1045 2.48043 14.9992 2.73478 14.9992 3V3.8C14.5531 3.90181 14.1272 4.07758 13.7392 4.32L13.1692 3.76C12.9778 3.59617 12.7318 3.51057 12.4801 3.52029C12.2284 3.53001 11.9897 3.63434 11.8116 3.81244C11.6335 3.99053 11.5292 4.22927 11.5194 4.48095C11.5097 4.73262 11.5953 4.9787 11.7592 5.17L12.3192 5.74C12.2292 5.89 12.1592 6.06 12.0792 6.22C11.5646 6.07667 11.0333 6.00268 10.4992 6C9.05801 5.99918 7.66471 6.5171 6.57402 7.45906C5.48333 8.40102 4.76812 9.70409 4.55915 11.13C3.86279 11.3239 3.24354 11.7287 2.78649 12.2887C2.32943 12.8487 2.05698 13.5365 2.00657 14.2576C1.95616 14.9787 2.13026 15.6978 2.50495 16.3159C2.87964 16.9341 3.43654 17.4211 4.09915 17.71C4.22633 17.7614 4.362 17.7885 4.49915 17.79C4.73035 17.7919 4.95505 17.7136 5.13503 17.5685C5.31501 17.4233 5.43914 17.2203 5.48629 16.994C5.53345 16.7676 5.50071 16.532 5.39367 16.327C5.28662 16.1221 5.11187 15.9606 4.89915 15.87C4.63085 15.7557 4.40229 15.5647 4.24217 15.321C4.08204 15.0772 3.9975 14.7916 3.99915 14.5C3.99915 14.1022 4.15719 13.7206 4.43849 13.4393C4.7198 13.158 5.10133 13 5.49915 13C5.76437 13 6.01872 12.8946 6.20626 12.7071C6.39379 12.5196 6.49915 12.2652 6.49915 12C6.50344 11.0557 6.84167 10.1434 7.45399 9.42447C8.0663 8.70558 8.91321 8.22651 9.8448 8.07204C10.7764 7.91757 11.7326 8.09767 12.5442 8.58047C13.3557 9.06326 13.9703 9.81761 14.2792 10.71C14.3363 10.8818 14.4391 11.0349 14.5764 11.1529C14.7138 11.2709 14.8807 11.3494 15.0592 11.38C15.5236 11.4488 15.9563 11.6569 16.3 11.9768C16.6437 12.2967 16.8822 12.7133 16.984 13.1717C17.0859 13.63 17.0463 14.1085 16.8704 14.5439C16.6946 14.9792 16.3908 15.351 15.9992 15.61C15.7764 15.7559 15.6207 15.9843 15.5663 16.2449C15.5119 16.5056 15.5633 16.7772 15.7092 17C15.855 17.2228 16.0834 17.3785 16.3441 17.4329C16.6048 17.4873 16.8764 17.4359 17.0992 17.29C17.6889 16.8891 18.1707 16.3491 18.5021 15.7177C18.8335 15.0864 19.0042 14.383 18.9992 13.67C18.998 13.139 18.8962 12.6131 18.6992 12.12L18.8292 12.24C19.0154 12.4247 19.2668 12.5289 19.5292 12.53C19.6608 12.5308 19.7912 12.5055 19.9131 12.4558C20.0349 12.406 20.1457 12.3327 20.2392 12.24C20.4254 12.0526 20.5299 11.7992 20.5299 11.535C20.5299 11.2708 20.4254 11.0174 20.2392 10.83L19.6792 10.27C19.9194 9.87723 20.0949 9.44844 20.1992 9H20.9992C21.2644 9 21.5187 8.89464 21.7063 8.70711C21.8938 8.51957 21.9992 8.26522 21.9992 8C21.9992 7.73478 21.8938 7.48043 21.7063 7.29289C21.5187 7.10536 21.2644 7 20.9992 7ZM17.6592 9.65C17.4853 9.82406 17.2822 9.96623 17.0592 10.07C16.7326 9.84412 16.3758 9.66568 15.9992 9.54C15.5405 8.53623 14.8182 7.67566 13.9092 7.05C14.0203 6.79151 14.176 6.55457 14.3692 6.35C14.8182 5.93464 15.4074 5.70393 16.0192 5.70393C16.6309 5.70393 17.2201 5.93464 17.6692 6.35C18.098 6.7922 18.3379 7.384 18.3379 8C18.3379 8.616 18.098 9.2078 17.6692 9.65H17.6592ZM12.4992 18C12.2339 18 11.9796 18.1054 11.792 18.2929C11.6045 18.4804 11.4992 18.7348 11.4992 19V20C11.4992 20.2652 11.6045 20.5196 11.792 20.7071C11.9796 20.8946 12.2339 21 12.4992 21C12.7644 21 13.0187 20.8946 13.2063 20.7071C13.3938 20.5196 13.4992 20.2652 13.4992 20V19C13.4992 18.7348 13.3938 18.4804 13.2063 18.2929C13.0187 18.1054 12.7644 18 12.4992 18ZM12.4992 13C12.2339 13 11.9796 13.1054 11.792 13.2929C11.6045 13.4804 11.4992 13.7348 11.4992 14V15C11.4992 15.2652 11.6045 15.5196 11.792 15.7071C11.9796 15.8946 12.2339 16 12.4992 16C12.7644 16 13.0187 15.8946 13.2063 15.7071C13.3938 15.5196 13.4992 15.2652 13.4992 15V14C13.4992 13.7348 13.3938 13.4804 13.2063 13.2929C13.0187 13.1054 12.7644 13 12.4992 13Z"
    fill="currentColor"/>
</svg>
