<?xml version="1.0" encoding="UTF-8"?>
<svg version="1.1" viewBox="0 0 2048 2048" xml:space="preserve" xmlns="http://www.w3.org/2000/svg"><path d="m1761 1036c42 11.333 80.333 28.667 115 52s65 51.667 91 85 46 69.667 60 109 21 81.333 21 126c0 44-7.3333 86-22 126s-35 76.667-61 110-57 61.667-93 85-75.333 40.333-118 51l-60-120c32-4 61.667-13 89-27s51.333-32.667 72-56 36.333-49 47-77 16.667-58.667 18-92c0-36.667-6.6667-70.667-20-102s-32.333-58.333-57-81-52.667-40.333-84-53-65.333-19.333-102-20c-8-54.667-25-105.33-51-152-26-46.667-58.333-87.333-97-122s-83.333-61.667-134-81-103.67-29-159-29c-51.333 0-100 8.3333-146 25s-88.333 39.667-127 69-71.333 64.667-98 106c-26.667 41.333-47 86.333-61 135-29.333-25.333-61.667-44.667-97-58s-72.333-20.333-111-21c-44 0-85.333 8.3333-124 25s-72.667 39.333-102 68-52.333 62.667-69 102-25 81-25 125c0 35.333 5.6667 69.333 17 102s27 62.333 47 89 44.333 50 73 70 60 35 94 45l-57 114c-44.667-15.333-85.333-37-122-65s-68.667-60.333-96-97-48-76.667-62-120-21.333-89.333-22-138c0-62 11.667-120 35-174s55.333-101.33 96-142c40.667-40.667 88-72.667 142-96s112.33-35.333 175-36c49.333 0 98.333 8.3333 147 25 26-43.333 56.667-82.333 92-117s74.333-64 117-88 88-42.667 136-56 97.333-20 148-20c62 0 121.33 9.6667 178 29s109.33 46.333 158 81 90.667 76.333 126 125 63 102.33 83 161m-783.94 746.89c9.3333 20 14 40.333 14 61 0 22-4 42.667-12 62s-19.667 36.333-35 51-32.333 26-51 34-39.333 12.333-62 13c-22 0-42.667-4-62-12s-36.333-19.667-51-35-26-32.333-34-51-12.333-39.333-13-62c0-20.667 4.6667-41 14-61l146-291z" fill="currentColor"/><path d="m1376.8 1748.1h142.1l-275.6 275.6h-62.44l82.679-165.36h-96.674l137.8-275.6h154.81z" fill="currentColor" stroke-width=".21531"/></svg>
