<svg xmlns="http://www.w3.org/2000/svg" xmlns:xlink="http://www.w3.org/1999/xlink" width="265" height="102">
	<path fill="#E30613" transform="translate(97.0445 56.6224)" d="M2.3006742 2.6431003L0 2.6431003L0 0.73478901L7.0473752 0.73478901L7.0473752 2.6431003L4.7475929 2.6431003L4.7475929 11.256361L2.3006742 11.256361L2.3006742 2.6431003L2.3006742 2.6431003ZM7.7313356 3.4260428L10.1301 3.4260428L10.1301 11.256361L7.7313356 11.256361L7.7313356 3.4269345L7.7313356 3.4260428ZM7.7313356 0.00089173421L10.1301 0.00089173421L10.1301 2.1053843L7.7313356 2.1053843L7.7313356 0.00089173421ZM11.695986 5.0391898C11.695986 4.3052926 11.695986 3.8157306 11.64694 3.4251511L13.800479 3.4251511C13.800479 3.9138215 13.849524 4.3543382 13.849524 4.8430085L13.898569 4.8430085C14.387239 4.0119123 14.730557 3.3270602 16.100262 3.3270602L16.442686 3.3270602L16.442686 5.5287519C16.198351 5.4797068 15.954017 5.4306612 15.659744 5.4306612C14.290041 5.4306612 14.093859 6.6541204 14.093859 7.7803807L14.093859 11.302732L11.695986 11.302732L11.695986 5.0391898ZM20.601736 9.7386293C21.433723 9.7386293 21.825195 8.8575954 21.825195 7.2917104C21.825195 5.7748709 21.433723 4.8938375 20.601736 4.8938375C19.769747 4.8938375 19.378277 5.7258253 19.378277 7.2926025C19.378277 8.8575954 19.769747 9.7386293 20.601736 9.7386293ZM20.601736 3.2789066C22.999609 3.2789066 24.272114 4.9428825 24.272114 7.2917104C24.272114 9.6904755 22.999609 11.353559 20.601736 11.353559C18.203861 11.353559 16.931356 9.6895838 16.931356 7.2917104C16.931356 4.9428825 18.203861 3.2789066 20.601736 3.2789066L20.601736 3.2789066ZM28.091412 0.00089173421L25.693537 0.00089173421L25.693537 11.256361L28.091412 11.256361L28.091412 0.00089173421ZM40.766521 2.8874354C40.178867 2.593163 39.346882 2.3488278 38.711075 2.3488278C37.928131 2.3488278 37.291431 2.6912539 37.291431 3.4750881C37.291431 5.3833995 41.402328 4.5023661 41.402328 8.2217894C41.402328 10.228191 39.836441 11.402605 37.731949 11.402605C36.459446 11.402605 35.334076 11.108333 34.893559 10.962089L35.040695 8.906641C35.774593 9.2009134 36.4104 9.5433397 37.340477 9.5433397C38.123421 9.5433397 38.857319 9.1509762 38.857319 8.3198805C38.857319 6.313478 34.746422 7.2917104 34.746422 3.5232418C34.746422 3.2298613 34.844513 0.53860748 38.367756 0.53860748C39.346882 0.53860748 39.934532 0.68485188 40.815567 0.88103342L40.766521 2.8874354L40.766521 2.8874354ZM46.540501 0.2452269L48.302567 0.2452269L48.302567 2.1535382L46.540501 2.1535382L46.540501 0.2452269ZM43.946445 0.2452269L45.708511 0.2452269L45.708511 2.1535382L43.946445 2.1535382L43.946445 0.2452269ZM49.476982 9.5923853C49.476982 10.326283 49.476982 10.815845 49.526028 11.207315L47.372486 11.207315C47.323444 10.864889 47.323444 10.424373 47.323444 9.8866568L47.274399 9.8866568C46.931973 10.717753 46.296165 11.305407 45.072704 11.305407C43.359684 11.305407 42.77203 10.032902 42.77203 8.4670162L42.77203 3.3279521L45.12175 3.3279521L45.12175 8.1736355C45.12175 9.1518679 45.562267 9.3970947 46.050938 9.3970947C46.833881 9.3970947 47.079109 8.7113514 47.079109 7.733119L47.079109 3.3279521L49.427937 3.3279521L49.427937 9.5923853L49.476982 9.5923853L49.476982 9.5923853ZM54.419865 9.6405382C55.398094 9.6405382 55.594276 8.2217894 55.594276 7.3398643C55.594276 6.1172967 55.349049 4.9428825 54.419865 4.9428825C53.391693 4.9428825 53.293602 6.1172967 53.293602 7.3407559C53.244556 8.1727438 53.342648 9.6414299 54.419865 9.6414299L54.419865 9.6405382ZM57.992149 9.4942942C57.992149 10.472527 58.041195 10.913043 58.041195 11.255469L55.789566 11.255469C55.74052 10.961197 55.74052 10.570618 55.74052 10.03201L55.691475 10.03201C55.44714 10.521572 54.908535 11.402605 53.53883 11.402605C51.776764 11.402605 50.797638 9.6895838 50.797638 7.1936197C50.797638 5.0891271 51.580582 3.3279521 53.53883 3.3279521C54.615154 3.3279521 55.250961 3.9147131 55.545231 4.599565L55.594276 4.599565L55.594276 0L57.992149 0L57.992149 9.4942942L57.992149 9.4942942ZM58.874077 3.4260428L60.244671 3.4260428L60.244671 1.8111122L62.544453 1.077215L62.544453 3.4260428L64.061295 3.4260428L64.061295 5.0900187L62.544453 5.0900187L62.544453 8.6623058C62.544453 9.4452486 62.886879 9.6414299 63.327396 9.6414299C63.669823 9.6414299 63.866005 9.5923853 64.110336 9.4942942L64.110336 11.15827C63.866005 11.256361 63.229305 11.354451 62.446362 11.354451C61.222904 11.354451 60.14658 10.766799 60.14658 9.0537777L60.14658 5.0900187L58.874077 5.0900187L58.874077 3.4260428L58.874077 3.4260428ZM65.236603 3.4260428L67.585426 3.4260428L67.585426 11.256361L65.236603 11.256361L65.236603 3.4269345L65.236603 3.4260428ZM65.236603 0.00089173421L67.585426 0.00089173421L67.585426 2.1053843L65.236603 2.1053843L65.236603 0.00089173421ZM69.198578 5.0391898C69.198578 4.3052926 69.198578 3.8157306 69.149529 3.4251511L71.30307 3.4251511C71.30307 3.9138215 71.352112 4.3543382 71.352112 4.8430085L71.401161 4.8430085C71.890717 4.0119123 72.233147 3.3270602 73.603745 3.3270602L73.946167 3.3270602L73.946167 5.5287519C73.700943 5.4797068 73.456604 5.4306612 73.163223 5.4306612C71.792625 5.4306612 71.596451 6.6541204 71.596451 7.7803807L71.596451 11.302732L69.198578 11.302732L69.198578 5.0391898ZM77.811836 9.7386293C78.643822 9.7386293 79.035294 8.8575954 79.035294 7.2917104C79.035294 5.7748709 78.643822 4.8938375 77.811836 4.8938375C76.979851 4.8938375 76.588379 5.7258253 76.588379 7.2926025C76.588379 8.8575954 76.979851 9.7386293 77.811836 9.7386293ZM77.811836 3.2789066C80.209709 3.2789066 81.482216 4.9428825 81.482216 7.2917104C81.482216 9.6904755 80.209709 11.353559 77.811836 11.353559C75.413963 11.353559 74.141457 9.6895838 74.141457 7.2917104C74.141457 4.9428825 75.413963 3.2789066 77.811836 3.2789066L77.811836 3.2789066ZM84.908257 0.00089173421L82.559425 0.00089173421L82.559425 11.256361L84.908257 11.256361L84.908257 0.00089173421ZM92.935646 2.6431003L90.634972 2.6431003L90.634972 0.73478901L97.68235 0.73478901L97.68235 2.6431003L95.382568 2.6431003L95.382568 11.256361L92.935646 11.256361L92.935646 2.6431003L92.935646 2.6431003ZM97.730499 5.0409737C97.730499 4.3070765 97.730499 3.8175142 97.68235 3.4269345L99.834991 3.4269345C99.834991 3.9156048 99.884041 4.3561215 99.884041 4.8447919L99.933083 4.8447919C100.42265 4.0136957 100.76508 3.3288438 102.13567 3.3288438L102.4781 3.3288438L102.4781 5.5314274C102.2213 5.4712267 101.95886 5.4383469 101.69515 5.4333367C100.32455 5.4333367 100.12926 6.6559043 100.12926 7.7821646L100.12926 11.305407L97.730499 11.305407L97.730499 5.0409737L97.730499 5.0409737ZM107.66621 6.656796C107.66621 5.6776719 107.42097 4.7484846 106.44275 4.7484846C105.21928 4.7484846 105.21928 6.2644329 105.21928 6.656796L107.66621 6.656796L107.66621 6.656796ZM109.8679 7.9774542L105.26744 7.9774542C105.26744 8.9075327 105.85509 9.7876749 107.22569 9.7876749C108.05768 9.7876749 108.84062 9.4942942 109.42738 9.1518679L109.47643 10.962089C108.67682 11.254688 107.83192 11.404109 106.98046 11.403499C104.24016 11.403499 103.0167 9.739521 103.0167 7.3416476C103.0167 5.237155 104.24016 3.3288438 106.4909 3.3288438C107.17664 3.3288438 109.8679 3.3288438 109.8679 7.3906932L109.8679 7.9774542L109.8679 7.9774542ZM115.39754 6.4115691C115.39754 5.4324446 114.95702 5.1881094 114.46835 5.1881094C113.68452 5.1881094 113.44019 5.8729615 113.44019 6.8520856L113.44019 11.257253L111.09135 11.257253L111.09135 5.0418653C111.09135 4.3070765 111.09135 3.8175142 111.04231 3.4260428L113.19585 3.4260428C113.2449 3.7693605 113.2449 4.2089853 113.2449 4.7475929L113.29305 4.7475929C113.63637 3.9156048 114.27217 3.3288438 115.49563 3.3288438C117.20865 3.3288438 117.79541 4.6004567 117.79541 6.1672339L117.79541 11.305407L115.44659 11.305407L115.44659 6.4115691L115.39754 6.4115691L115.39754 6.4115691ZM118.67555 3.4260428L120.04615 3.4260428L120.04615 1.8120039L122.34682 1.077215L122.34682 3.4260428L123.86366 3.4260428L123.86366 5.0900187L122.34682 5.0900187L122.34682 8.6631975C122.34682 9.4461403 122.68925 9.6414299 123.12977 9.6414299C123.47219 9.6414299 123.66748 9.5923853 123.91271 9.4951859L123.91271 11.15827C123.66748 11.256361 123.03168 11.354451 122.24873 11.354451C121.02528 11.354451 119.94806 10.766799 119.94806 9.0537777L119.94806 5.0900187L118.67555 5.0900187L118.67555 3.4260428L118.67555 3.4260428ZM125.08713 3.4260428L127.485 3.4260428L127.485 11.256361L125.08713 11.256361L125.08713 3.4269345L125.08713 3.4260428ZM125.08713 0.00089173421L127.485 0.00089173421L127.485 2.1053843L125.08713 2.1053843L125.08713 0.00089173421ZM133.35796 6.4097853C133.35796 5.4306612 132.91743 5.186326 132.42789 5.186326C131.64494 5.186326 131.4006 5.8711782 131.4006 6.8503022L131.4006 11.254578L129.05089 11.254578L129.05089 5.0391898C129.05089 4.3052926 129.05089 3.8157306 129.00273 3.4251511L131.15538 3.4251511C131.20442 3.7666852 131.20442 4.207202 131.20442 4.7449179L131.25346 4.7449179C131.59589 3.9138215 132.23259 3.3270602 133.45605 3.3270602C135.16907 3.3270602 135.75583 4.5986733 135.75583 6.1645584L135.75583 11.303623L133.35796 11.303623L133.35796 6.4097853L133.35796 6.4097853ZM140.69872 9.7386293C141.5307 9.7386293 141.92218 8.8575954 141.92218 7.2917104C141.92218 5.7748709 141.5307 4.8938375 140.69872 4.8938375C139.86673 4.8938375 139.47525 5.7258253 139.47525 7.2926025C139.47525 8.8575954 139.86673 9.7386293 140.69872 9.7386293ZM140.69872 3.2789066C143.09659 3.2789066 144.36909 4.9428825 144.36909 7.2917104C144.36909 9.6904755 143.09659 11.353559 140.69872 11.353559C138.29996 11.353559 137.02834 9.6895838 137.02834 7.2917104C137.02834 4.9428825 138.29996 3.2789066 140.69872 3.2789066Z"/>
	<path fill="#8F1448" transform="translate(97.0445 70.4729)" d="M2.3006742 2.6912539L0 2.6912539L0 0.78294265L7.0473752 0.78294265L7.0473752 2.6912539L4.7475929 2.6912539L4.7475929 11.255469L2.3006742 11.255469L2.3006742 2.6912539L2.3006742 2.6912539ZM7.7313356 3.4260428L10.1301 3.4260428L10.1301 11.256361L7.7313356 11.256361L7.7313356 3.4260428ZM7.7313356 0L10.1301 0L10.1301 2.1044927L7.7313356 2.1044927L7.7313356 0ZM11.695986 5.086452C11.695986 4.3525548 11.695986 3.8629925 11.64694 3.4724131L13.800479 3.4724131C13.800479 3.9610834 13.849524 4.4015999 13.849524 4.8902702L13.898569 4.8902702C14.387239 4.0591741 14.730557 3.3743222 16.100262 3.3743222L16.442686 3.3743222L16.442686 5.576014C16.185827 5.5161829 15.923426 5.4833078 15.659744 5.4779234C14.290041 5.4779234 14.093859 6.7013826 14.093859 7.8267512L14.093859 11.350884L11.695986 11.350884L11.695986 5.086452L11.695986 5.086452ZM20.601736 9.7867832C21.433723 9.7867832 21.825195 8.9057493 21.825195 7.3398643C21.825195 5.8230243 21.433723 4.9410992 20.601736 4.9410992C19.769747 4.9410992 19.378277 5.7739792 19.378277 7.3398643C19.378277 8.8567038 19.769747 9.7867832 20.601736 9.7867832ZM20.601736 3.3270602C22.999609 3.3270602 24.272114 4.9910364 24.272114 7.3398643C24.272114 9.6886921 22.999609 11.401713 20.601736 11.401713C18.203861 11.401713 16.931356 9.7377377 16.931356 7.3398643C16.931356 4.9910364 18.203861 3.3270602 20.601736 3.3270602L20.601736 3.3270602ZM27.69994 0L25.35022 0L25.35022 11.256361L27.69994 11.256361L27.69994 0ZM32.495686 9.7876749C33.327675 9.7876749 33.719147 8.906641 33.719147 7.3407559C33.719147 5.823916 33.327675 4.9428825 32.495686 4.9428825C31.663698 4.9428825 31.272226 5.7748709 31.272226 7.3407559C31.272226 8.8584881 31.663698 9.7876749 32.495686 9.7876749ZM32.495686 3.3279521C34.893559 3.3279521 36.166065 4.9919281 36.166065 7.3407559C36.166065 9.6904755 34.893559 11.402605 32.495686 11.402605C30.097813 11.402605 28.825308 9.7386293 28.825308 7.3407559C28.825308 4.9919281 30.097813 3.3279521 32.495686 3.3279521ZM46.297058 2.7893445L45.024551 7.1445746L47.373379 7.1445746L46.297058 2.7893445ZM47.862942 8.906641L44.584034 8.906641L43.85014 11.255469L41.452263 11.255469L44.92646 0.78294265L47.618607 0.78294265L50.995605 11.255469L48.450596 11.255469L47.862942 8.906641ZM54.273621 0L51.875744 0L51.875744 11.256361L54.273621 11.256361L54.273621 0ZM55.202805 3.4251511L56.57251 3.4251511L56.57251 1.8111122L58.873184 1.0763232L58.873184 3.4251511L60.390022 3.4251511L60.390022 5.0891271L58.873184 5.0891271L58.873184 8.6614141C58.873184 9.4443569 59.215611 9.6405382 59.656128 9.6405382C59.998554 9.6405382 60.194733 9.5914927 60.439068 9.4934025L60.439068 11.157378C60.194733 11.255469 59.558037 11.353559 58.775093 11.353559C57.551636 11.353559 56.475311 10.765907 56.475311 9.052886L56.475311 5.0891271L55.202805 5.0891271L55.202805 3.4251511L55.202805 3.4251511ZM64.989586 9.7876749C65.821579 9.7876749 66.213051 8.906641 66.213051 7.3407559C66.213051 5.8230243 65.821579 4.9419909 64.989586 4.9419909C64.1576 4.9419909 63.766129 5.7748709 63.766129 7.3407559C63.766129 8.8575954 64.1576 9.7876749 64.989586 9.7876749ZM64.989586 3.3279521C67.387459 3.3279521 68.659966 4.9910364 68.659966 7.3407559C68.659966 9.6895838 67.387459 11.402605 64.989586 11.402605C62.591717 11.402605 61.31921 9.7386293 61.31921 7.3407559C61.31921 4.9910364 62.591717 3.3279521 64.989586 3.3279521L64.989586 3.3279521ZM75.561989 2.7893445L74.289482 7.1445746L76.639206 7.1445746L75.561989 2.7893445ZM77.128769 8.906641L73.849861 8.906641L73.115074 11.255469L70.717201 11.255469L74.192284 0.78294265L76.883537 0.78294265L80.260536 11.255469L77.71553 11.255469L77.128769 8.906641ZM84.174362 9.6895838C85.152588 9.6895838 85.34877 8.2708349 85.34877 7.3898015C85.34877 6.1663423 85.103546 4.9910364 84.174362 4.9910364C83.146187 4.9910364 83.048096 6.1663423 83.048096 7.3898015C83.048096 8.1727438 83.097145 9.6895838 84.174362 9.6895838ZM87.746643 9.4942942C87.746643 10.473418 87.795692 10.913043 87.795692 11.256361L85.54406 11.256361C85.495018 10.962089 85.495018 10.570618 85.495018 10.032902L85.446861 10.032902C85.201637 10.521572 84.663033 11.402605 83.293327 11.402605C81.531258 11.402605 80.553024 9.6895838 80.553024 7.1945114C80.553024 5.0900187 81.335968 3.3279521 83.293327 3.3279521C84.369652 3.3279521 85.006348 3.9156048 85.299728 4.6004567L85.34877 4.6004567L85.34877 0L87.746643 0L87.746643 9.4942942L87.746643 9.4942942ZM89.313423 3.4260428L91.662254 3.4260428L91.662254 11.256361L89.313423 11.256361L89.313423 3.4260428ZM89.313423 0L91.662254 0L91.662254 2.1044927L89.313423 2.1044927L89.313423 0ZM96.655067 9.5914927C97.633301 9.5914927 97.829483 8.417079 97.829483 7.3398643C97.829483 6.4588308 97.633301 5.0391898 96.655067 5.0391898C95.577858 5.0391898 95.479767 6.5569215 95.479767 7.3398643C95.528809 7.9765625 95.6269 9.5914927 96.655067 9.5914927ZM100.22736 10.325391C100.22736 11.450759 100.17831 14.631575 96.263596 14.631575C95.137337 14.631575 94.208153 14.387239 93.424316 14.142904L93.522408 12.184656C93.913879 12.380837 94.893005 12.870399 95.96933 12.870399C97.829483 12.870399 97.926682 11.499804 97.926682 9.8848734L97.878532 9.8848734C97.731392 10.325391 97.143738 11.255469 95.823082 11.255469C94.452484 11.255469 93.081894 10.276345 93.081894 7.3398643C93.081894 4.8439002 94.061012 3.2780149 95.871239 3.2780149C97.241829 3.2780149 97.780441 4.1590486 97.975731 4.6486106L98.024773 4.6486106L98.073822 3.4251511L100.32545 3.4251511C100.27641 3.7675769 100.27641 4.2080936 100.27641 5.186326L100.27641 10.325391L100.22736 10.325391L100.22736 10.325391ZM106.24657 6.7049494C106.24657 5.7258253 106.00223 4.7966385 105.0231 4.7966385C103.79964 4.7966385 103.79964 6.313478 103.79964 6.7049494L106.24657 6.7049494L106.24657 6.7049494ZM108.4001 7.9774542L103.79964 7.9774542C103.79964 8.906641 104.3873 9.7876749 105.757 9.7876749C106.58899 9.7876749 107.37193 9.4942942 107.95959 9.1518679L108.00863 10.962089C107.20905 11.254674 106.3641 11.403801 105.51266 11.402613C102.77148 11.402613 101.54802 9.7386293 101.54802 7.3407559C101.54802 5.2362633 102.77148 3.3279521 105.0231 3.3279521C105.70795 3.3279521 108.4001 3.3279521 108.4001 7.3898015L108.4001 7.9774542L108.4001 7.9774542ZM115.44659 2.6912539L113.14591 2.6912539L113.14591 0.78294265L120.19328 0.78294265L120.19328 2.6912539L117.8935 2.6912539L117.8935 11.255469L115.44659 11.255469L115.44659 2.6912539ZM120.29227 5.0882354C120.29227 4.3543382 120.29227 3.8647761 120.24323 3.4741964L122.39676 3.4741964C122.39676 3.9628668 122.44581 4.4033837 122.44581 4.8920541L122.49485 4.8920541C122.98441 4.0609574 123.32684 3.3761058 124.64839 3.3761058L124.99081 3.3761058L124.99081 5.5777974C124.74559 5.5287519 124.50125 5.4797068 124.20787 5.4797068C122.83728 5.4797068 122.6411 6.703166 122.6411 7.8294263L122.6411 11.352668L120.29227 11.352668L120.29227 5.0882354L120.29227 5.0882354ZM130.22797 6.7049494C130.22797 5.7258253 129.98274 4.7966385 129.00452 4.7966385C127.78105 4.7966385 127.78105 6.313478 127.78105 6.7049494L130.22797 6.7049494ZM132.38062 7.9765625L127.78105 7.9765625C127.78105 8.906641 128.36781 9.7876749 129.7384 9.7876749C130.5704 9.7876749 131.35335 9.4942942 131.94009 9.1518679L131.98915 10.962089C131.18945 11.254241 130.34457 11.403355 129.49318 11.402608C126.75288 11.402608 125.52943 9.7386293 125.52943 7.3407559C125.52943 5.2362633 126.75288 3.3279521 129.00452 3.3279521C129.68936 3.3279521 132.38062 3.3279521 132.38062 7.3898015L132.38062 7.9765625L132.38062 7.9765625ZM137.9593 6.4606142C137.9593 5.4814901 137.51878 5.2362633 137.02924 5.2362633C136.24629 5.2362633 136.00195 5.9220071 136.00195 6.9002395L136.00195 11.305407L133.65312 11.305407L133.65312 5.1390643C133.65312 4.4051671 133.65312 3.9156048 133.60408 3.5241337L135.75673 3.5241337C135.80577 3.8665595 135.80577 4.3070765 135.80577 4.8447919L135.85481 4.8447919C136.19724 4.012804 136.83394 3.4260428 138.0574 3.4260428C139.77042 3.4260428 140.35718 4.6985474 140.35718 6.2644329L140.35718 11.256361L137.9593 11.256361L137.9593 6.4606142L137.9593 6.4606142ZM141.23911 3.4251511L142.6097 3.4251511L142.6097 1.8111122L144.90948 1.0763232L144.90948 3.4251511L146.42722 3.4251511L146.42722 5.0891271L144.90948 5.0891271L144.90948 8.6623058C144.90948 9.4452486 145.25191 9.6405382 145.69243 9.6405382C146.03575 9.6405382 146.23103 9.5914927 146.47537 9.4942942L146.47537 11.15827C146.23103 11.255469 145.59523 11.353559 144.81139 11.353559C143.58794 11.353559 142.51161 10.765907 142.51161 9.0537777L142.51161 5.0891271L141.23911 5.0891271L141.23911 3.4251511L141.23911 3.4251511ZM147.59984 3.4260428L149.99773 3.4260428L149.99773 11.256361L147.59984 11.256361L147.59984 3.4260428ZM147.59984 0L149.99773 0L149.99773 2.1044927L147.59984 2.1044927L147.59984 0ZM155.8689 6.4588308C155.8689 5.4797068 155.42838 5.2353716 154.93881 5.2353716C154.15587 5.2353716 153.91154 5.9202232 153.91154 6.8993478L153.91154 11.303623L151.56271 11.303623L151.56271 5.1372809C151.56271 4.4033837 151.56271 3.9138215 151.51367 3.5232418L153.66632 3.5232418C153.71536 3.8647761 153.71536 4.3052926 153.71536 4.8439002L153.7644 4.8439002C154.10683 4.0119123 154.74353 3.4251511 155.967 3.4251511C157.68001 3.4251511 158.26677 4.696764 158.26677 6.2635412L158.26677 11.254578L155.8689 11.254578L155.8689 6.4588308L155.8689 6.4588308ZM163.2596 9.7867832C164.09158 9.7867832 164.48305 8.9057493 164.48305 7.3398643C164.48305 5.8221326 164.09158 4.9410992 163.2596 4.9410992C162.4276 4.9410992 162.03613 5.7739792 162.03613 7.3398643C162.03613 8.8567038 162.4276 9.7867832 163.2596 9.7867832ZM163.2596 3.3270602C165.65747 3.3270602 166.92996 4.9901447 166.92996 7.3398643C166.92996 9.6886921 165.65747 11.401713 163.2596 11.401713C160.86171 11.401713 159.58922 9.7377377 159.58922 7.3398643C159.54016 4.9901447 160.81267 3.3270602 163.2596 3.3270602Z"/>
	<path fill="#657880" transform="translate(49.1334 0.980263)" d="M5.0900187 4.1578979C6.7040577 3.1306202 8.2708349 3.8154721 8.8085508 4.5003242C9.7876749 5.7237835 9.5433397 7.2905602 9.2490673 8.7583551C9.0047321 9.7865248 8.417079 11.792927 9.5433397 12.477778C10.766799 13.260721 12.136502 11.841971 12.822247 10.960938C13.654234 9.8346777 15.660636 6.3595901 16.736959 4.060699C18.400936 0.48752016 21.924177 -0.98027432 24.12676 0.68370169C26.769861 2.8862851 23.930578 6.2133455 22.854256 8.4649744C22.267494 9.7374792 21.876024 11.254319 23.588154 11.694836C25.15493 12.086307 30.244057 8.5630655 35.725548 9.003582C37.046207 9.149826 38.221512 10.373285 37.633858 11.743881C37.095253 13.016386 33.327675 15.560503 32.201412 16.637718C30.73362 18.056467 30.342148 19.5742 32.740021 20.503386C35.039803 21.38442 41.157101 23.341776 42.821075 24.222809C44.485054 25.103844 45.317039 27.942232 41.842846 28.970402C38.367756 29.997681 34.453041 29.214737 31.516562 30.389153C30.096922 31.02585 29.950676 32.787918 31.124199 34.059528C32.64193 35.772552 36.998051 39.785355 38.367756 41.25404C39.395924 42.477501 39.93364 44.238674 39.1507 45.805454C37.242386 49.425892 33.131493 48.447662 29.901632 46.881775C28.091412 46.196922 21.48366 41.106907 20.603519 43.945293C20.358292 45.364937 22.169405 47.811855 22.903301 48.741043C23.882425 50.013546 25.35022 51.775612 25.595448 53.63488C25.888828 55.298855 24.12676 57.257103 21.826979 56.620403C19.183878 55.886509 17.079386 53.195255 15.709682 52.851936C14.142904 52.31422 13.114735 53.14621 12.968491 54.515911C12.724155 57.060921 12.430775 60.682255 10.179146 62.052849C8.5151701 63.129173 5.0900187 62.933884 4.0618491 59.458794C3.3769975 57.109966 3.9147131 54.22253 5.1872177 50.454063C6.9002395 45.266846 3.9637585 41.400284 0 39.295792C2.2025836 38.856167 5.3343539 37.191299 5.3343539 32.836071C5.3343539 28.040323 0.88103342 25.006643 0.29338056 18.105513C-0.04904538 13.407857 1.1253686 7.5830493 5.0900187 4.1587901L5.0900187 4.1578979Z"/>
	<path fill="#8F1448" transform="translate(19.0356 51.7776)" d="M13.115626 17.960419C14.045706 18.841452 14.779603 19.673441 15.855926 19.134832C18.25469 17.520794 13.99666 15.220119 14.045706 12.087457C14.143796 6.2153873 28.237656 9.0047321 30.096922 0C32.348549 3.3769975 28.335747 6.0682511 30.096922 7.5859828C31.712744 9.4452486 28.580973 12.724155 27.552803 15.269165C26.916105 17.177477 28.237656 19.281969 31.271336 18.05851C32.690975 17.519901 34.403996 13.653342 36.752827 15.855926C38.612984 17.568947 35.383121 20.847855 38.02533 22.756165C41.059902 24.909704 43.212547 27.797138 42.77203 31.027C42.28336 34.403996 39.787395 36.215111 36.703781 36.312309C34.844513 36.361355 32.887157 35.48032 33.57201 33.473919C33.964371 32.299503 33.670101 31.516562 32.887157 31.027C31.174135 29.950676 29.264933 30.977955 28.531036 32.838112C27.699047 34.942604 31.223181 37.19334 30.73362 39.248791C30.293102 41.157101 28.531036 40.814674 27.063242 40.66843C25.986917 40.570339 25.301174 40.521294 24.762568 40.86372C23.735289 41.549465 23.392864 42.772923 23.686243 44.142628C24.224852 46.443302 22.609921 48.400658 19.967712 48.15543C18.009464 47.96014 16.884096 45.806602 17.911373 43.751156C18.597116 42.332405 18.156601 41.451374 17.519901 41.010857C16.736959 40.472248 15.855926 40.86372 14.632466 41.206146C13.311809 41.597618 12.088349 41.059902 11.745031 40.129822C11.402605 39.1507 11.745031 37.780994 13.017536 36.459446C13.898569 35.529366 14.632466 34.453041 14.877693 32.936203C15.171074 31.076046 14.09475 29.608252 12.920337 29.167734C11.941213 28.776262 10.864889 28.678171 9.396203 29.363024C6.9974384 30.489285 8.3198805 32.44664 5.7748709 33.719147C3.2298613 34.99165 0.04904538 32.006123 0 29.51016C0 27.014196 1.2725047 25.105885 4.2580309 24.469187C5.6277347 24.175806 9.0537777 24.665369 9.8848734 23.343819C10.864889 21.826979 8.2708349 20.847855 7.6831818 19.38006C6.9002395 17.422703 8.4661245 16.150198 10.180037 16.003061C11.745031 15.70879 12.527974 17.421812 13.115626 17.960419L13.115626 17.960419Z"/>
	<path fill="#657880" transform="translate(97.0445 25.7907)" d="M0.04904538 0.19618152L7.0964208 0.19618152L7.0964208 2.3497195L2.7893445 2.3497195L2.7893445 5.1390643L6.8520856 5.1390643L6.8520856 7.2926025L2.7893445 7.2926025L2.7893445 10.375327L7.2917104 10.375327L7.2917104 12.577911L0.04904538 12.577911L0.04904538 0.19618152L0.04904538 0.19618152ZM9.0047321 0.19618152L11.892167 0.19618152L11.892167 8.5160618C11.892167 9.7386293 12.332685 10.522464 13.507098 10.522464C14.681512 10.522464 15.122028 9.7386293 15.122028 8.5160618L15.122028 0.19618152L18.009464 0.19618152L18.009464 8.0746536C18.009464 11.15827 16.296442 12.773201 13.556144 12.773201C10.815845 12.773201 9.1028223 11.15827 9.1028223 8.0746536L9.1028223 0.19618152L9.0047321 0.19618152L9.0047321 0.19618152ZM22.902411 5.4814901L23.783443 5.4814901C24.860659 5.4814901 25.447418 4.7467012 25.447418 3.8656678C25.447418 3.3769975 25.301174 2.2997825 23.734398 2.2997825L22.853365 2.2997825L22.853365 5.4814901L22.902411 5.4814901L22.902411 5.4814901ZM20.113066 0.19528979L24.566385 0.19528979C26.572788 0.19528979 28.285809 1.0763232 28.285809 3.3769975C28.285809 3.8665595 28.236763 5.9211149 25.83889 6.4106774L25.83889 6.4597225C26.719923 6.5578132 27.062349 7.0473752 27.551912 8.5151701L28.824417 12.527974L25.83889 12.527974L24.908812 9.2000217C24.420141 7.5369377 24.028669 7.5369377 23.0005 7.5369377L23.0005 12.527974L20.113066 12.527974L20.113066 0.19618152L20.113066 0.19528979ZM35.334076 10.668708C36.998051 10.668708 37.585705 8.760397 37.585705 6.3616319C37.585705 4.0136957 36.998051 2.0554473 35.334076 2.0554473C33.670994 2.0554473 33.08334 3.9637585 33.08334 6.3625236C33.08334 8.760397 33.670994 10.6696 35.334076 10.6696L35.334076 10.668708ZM35.334076 0C38.858212 0 40.522186 2.7411909 40.522186 6.4115691C40.522186 10.03201 38.858212 12.823138 35.334076 12.823138C31.810835 12.823138 30.146858 10.081947 30.146858 6.4115691C30.146858 2.7411909 31.810835 0 35.334076 0ZM46.149921 5.8729615C47.030952 5.8729615 47.667652 5.2362633 47.667652 4.1108947C47.667652 2.8874354 47.129044 2.3488278 45.954632 2.3488278L45.220734 2.3488278L45.220734 5.8729615L46.149921 5.8729615ZM42.479542 0.19528979L46.395145 0.19528979C48.988312 0.19528979 50.554195 1.4677945 50.554195 4.110003C50.554195 6.2144957 49.37978 8.0256081 46.737572 8.0256081L45.366978 8.0256081L45.366978 12.528866L42.479542 12.528866L42.479542 0.19618152L42.479542 0.19528979ZM55.790459 2.5949466L54.321774 7.733119L57.062965 7.733119L55.790459 2.5940547L55.790459 2.5949466ZM57.600677 9.7885666L53.784058 9.7885666L52.952068 12.528866L50.161831 12.528866L54.224575 0.19618152L57.356342 0.19618152L61.271057 12.528866L58.334576 12.528866L57.600677 9.7885666ZM65.332909 5.4814901L66.213943 5.4814901C67.340202 5.4814901 67.877914 4.7475929 67.877914 3.8674512C67.877914 3.3769975 67.731674 2.3006742 66.164894 2.3006742L65.332909 2.3006742L65.332909 5.4814901L65.332909 5.4814901ZM62.543564 0.19618152L66.99688 0.19618152C69.003288 0.19618152 70.716309 1.077215 70.716309 3.3778892C70.716309 3.8665595 70.667259 5.9220071 68.269386 6.4115691L68.269386 6.4606142C69.150421 6.5587049 69.492844 7.0482674 69.982407 8.5160618L71.254913 12.528866L68.269386 12.528866L67.340202 9.2009134C66.850639 7.5369377 66.459167 7.5369377 65.431 7.5369377L65.431 12.528866L62.543564 12.528866L62.543564 0.19618152L62.543564 0.19618152ZM72.918892 0.19618152L79.966263 0.19618152L79.966263 2.3497195L75.708237 2.3497195L75.708237 5.1390643L79.770081 5.1390643L79.770081 7.2926025L75.708237 7.2926025L75.708237 10.375327L80.161552 10.375327L80.161552 12.577911L72.918892 12.577911L72.918892 0.19618152L72.918892 0.19618152ZM87.209824 5.4823818L91.516006 5.4823818L91.516006 12.138286C90.880203 12.431666 89.412407 12.774093 87.454155 12.774093C85.203423 12.774093 81.631134 11.599679 81.631134 6.3143697C81.631134 3.2797985 83.29422 0.00089173421 87.943718 0.00089173421C89.363358 0.00089173421 90.39064 0.29516402 91.124535 0.49134555L90.929245 2.9373724C90.292549 2.6431003 89.412407 2.2525206 88.1399 2.2525206C85.105331 2.2525206 84.517677 5.0909104 84.517677 6.4615059C84.517677 8.7612886 85.545845 10.572401 87.748428 10.572401C88.188057 10.572401 88.48233 10.523355 88.726662 10.376219L88.726662 7.5868745L87.111732 7.5868745L87.111732 5.4823818L87.209824 5.4823818ZM96.556091 0.19618152L93.669548 0.19618152L93.669548 12.528866L96.556091 12.528866L96.556091 0.19618152L96.556091 0.19618152ZM103.6534 10.6696C105.31738 10.6696 105.90414 8.7612886 105.90414 6.3625236C105.90414 4.0145874 105.31738 2.056339 103.6534 2.056339C101.98943 2.056339 101.40177 3.9646504 101.40177 6.3634152C101.45082 8.7612886 101.98943 10.670491 103.6534 10.670491L103.6534 10.6696ZM103.6534 0.00089173421C107.17664 0.00089173421 108.84062 2.7420826 108.84062 6.4124608C108.84062 10.032902 107.17664 12.82403 103.6534 12.82403C100.12926 12.82403 98.465294 10.082839 98.465294 6.4124608C98.514336 2.7420826 100.17831 0.00089173421 103.6534 0.00089173421ZM110.74982 0.19618152L114.12682 0.19618152L117.6991 8.7612886L117.6991 0.19618152L120.24412 0.19618152L120.24412 12.577911L116.81807 12.577911L113.34299 3.6222243L113.29483 3.6222243L113.29483 12.577911L110.74982 12.577911L110.74982 0.19618152L110.74982 0.19618152ZM0 15.856817L7.0473752 15.856817L7.0473752 18.010355L2.7411909 18.010355L2.7411909 20.750654L6.8520856 20.750654L6.8520856 22.904194L2.7411909 22.904194L2.7411909 26.035963L7.243557 26.035963L7.243557 28.189501L0 28.189501L0 15.856817L0 15.856817ZM8.9556866 15.858602L11.843122 15.858602L11.843122 24.178482C11.843122 25.401049 12.283639 26.184883 13.458053 26.184883C14.633358 26.184883 15.073875 25.401049 15.073875 24.178482L15.073875 15.858602L17.960419 15.858602L17.960419 23.737072C17.960419 26.82069 16.248289 28.435621 13.507098 28.435621C10.766799 28.435621 9.0537777 26.82069 9.0537777 23.737072L9.0537777 15.858602L8.9556866 15.858602L8.9556866 15.858602ZM22.854256 21.143019L23.735289 21.143019C24.860659 21.143019 25.398375 20.409121 25.398375 19.528088C25.398375 19.038525 25.252129 17.962202 23.686243 17.962202L22.80521 17.962202L22.80521 21.143019L22.854256 21.143019L22.854256 21.143019ZM20.06402 15.857709L24.518232 15.857709C26.524633 15.857709 28.237656 16.738743 28.237656 19.038525C28.237656 19.528088 28.18861 21.583534 25.790737 22.073097L25.790737 22.122143C26.670877 22.220232 27.014196 22.708902 27.502867 24.177589L28.775372 28.190393L25.790737 28.190393L24.860659 24.862442C24.371096 23.198465 23.979624 23.198465 22.951454 23.198465L22.951454 28.190393L20.06402 28.190393L20.06402 15.857709L20.06402 15.857709ZM30.439346 15.856817L37.486721 15.856817L37.486721 18.010355L33.228691 18.010355L33.228691 20.750654L37.291431 20.750654L37.291431 22.904194L33.228691 22.904194L33.228691 26.035963L37.731056 26.035963L37.731056 28.189501L30.439346 28.189501L30.439346 15.856817L30.439346 15.856817ZM44.730278 21.142126L49.037357 21.142126L49.037357 27.797138C48.400658 28.091412 46.932861 28.433836 44.975506 28.433836C42.723877 28.433836 39.151588 27.259422 39.151588 21.974113C39.151588 18.939543 40.815567 15.660636 45.464176 15.660636C46.883816 15.660636 47.911095 15.954908 48.645885 16.150198L48.449703 18.597116C47.813896 18.302845 46.932861 17.912266 45.660358 17.912266C42.625786 17.912266 42.039024 20.701609 42.039024 22.12125C42.039024 24.421034 43.066303 26.232145 45.268887 26.232145C45.709404 26.232145 46.002785 26.1831 46.24712 26.035963L46.24712 23.246618L44.632187 23.246618L44.632187 21.142126L44.730278 21.142126ZM54.077438 15.856817L51.190002 15.856817L51.190002 28.189501L54.077438 28.189501L54.077438 15.856817L54.077438 15.856817ZM61.173859 26.330236C62.837833 26.330236 63.425488 24.421925 63.425488 22.023159C63.425488 19.674332 62.837833 17.716084 61.173859 17.716084C59.509884 17.716084 58.923122 19.624395 58.923122 22.023159C58.971275 24.421925 59.509884 26.330236 61.173859 26.330236ZM61.173859 15.61159C64.697098 15.61159 66.361076 18.352781 66.361076 22.023159C66.361076 25.644493 64.697098 28.434729 61.173859 28.434729C57.650616 28.434729 55.986641 25.693537 55.986641 22.023159C56.035686 18.401827 57.699661 15.61159 61.173859 15.61159Z"/>
	<path fill="#164194" transform="translate(221.496 25.7916)" d="M42.478649 0L0 0L0 28.18861L42.478649 28.18861L42.478649 0.00089173421L42.478649 0Z"/>
	<path fill="#FFED00" transform="translate(231.968 29.1677)" d="M9.8376122 2.7402992L10.766799 2.1044927L11.647832 2.7411909L11.305407 1.7130214L12.235485 1.0281695L11.109224 1.0281695L10.766799 0L10.424373 1.077215L9.2990046 1.0281695L10.180037 1.7130214L9.8376122 2.7411909L9.8376122 2.7402992ZM5.2380466 4.0136957L6.1181884 3.3279521L6.9992218 4.0136957L6.656796 2.9364808L7.5868745 2.3006742L6.4615059 2.3006742L6.1181884 1.224351L5.7757626 2.3006742L4.650394 2.3006742L5.5804725 2.9364808L5.2380466 4.0136957ZM2.7411909 4.6004567L2.3987651 5.6767797L1.2733965 5.6767797L2.1544299 6.313478L1.8120039 7.3898015L2.7411909 6.7049494L3.6222243 7.3898015L3.2797985 6.313478L4.209877 5.6767797L3.0845087 5.6767797L2.7411909 4.6004567L2.7411909 4.6004567ZM1.4686862 11.354451L2.3978732 11.990258L2.0554473 10.913043L2.9364808 10.277237L1.8111122 10.277237L1.4686862 9.2000217L1.1253686 10.277237L0 10.277237L0.9300788 10.913043L0.58765286 11.990258L1.4686862 11.353559L1.4686862 11.354451ZM3.0845087 14.925847L2.7411909 13.849524L2.3987651 14.925847L1.2733965 14.925847L2.1544299 15.562546L1.8120039 16.589823L2.7411909 15.954017L3.6222243 16.589823L3.2797985 15.562546L4.209877 14.925847L3.0845087 14.925847L3.0845087 14.925847ZM6.4615059 18.304628L6.1181884 17.227413L5.7757626 18.304628L4.650394 18.304628L5.5804725 18.940435L5.2380466 20.017649L6.1181884 19.331905L6.9992218 20.017649L6.7058411 18.940435L7.5868745 18.304628L6.4615059 18.304628ZM11.109224 19.527195L10.766799 18.450872L10.424373 19.527195L9.2990046 19.527195L10.180037 20.163895L9.8857651 21.240217L10.766799 20.555365L11.647832 21.240217L11.305407 20.163895L12.235485 19.527195L11.109224 19.527195ZM15.70879 18.304628L15.366364 17.227413L15.023938 18.304628L13.947615 18.304628L14.828649 18.940435L14.485331 20.017649L15.366364 19.331905L16.296442 20.017649L15.954017 18.940435L16.835051 18.304628L15.70879 18.304628ZM19.135725 14.925847L18.792406 13.849524L18.44998 14.925847L17.324612 14.925847L18.25469 15.562546L17.911373 16.589823L18.792406 15.954017L19.673441 16.589823L19.331015 15.562546L20.261093 14.925847L19.135725 14.925847ZM21.485443 10.277237L20.360075 10.277237L20.016758 9.2000217L19.674332 10.277237L18.548964 10.277237L19.479042 10.913043L19.136616 11.990258L20.016758 11.304515L20.897791 11.990258L20.555365 10.913043L21.485443 10.277237ZM17.911373 7.3898015L18.792406 6.7049494L19.673441 7.3898015L19.331015 6.313478L20.261093 5.6767797L19.135725 5.6767797L18.792406 4.6004567L18.44998 5.6767797L17.324612 5.6767797L18.25469 6.313478L17.911373 7.3898015ZM15.415409 1.224351L15.072984 2.3006742L13.947615 2.3006742L14.828649 2.9364808L14.485331 4.0136957L15.415409 3.3279521L16.296442 4.0136957L15.954017 2.9364808L16.884096 2.3006742L15.757835 2.3006742L15.415409 1.224351Z"/>
	<path fill="#E30613" transform="translate(0.394455 13.6211)" d="M34.596031 16.525715C34.596031 16.672852 34.399849 16.623806 34.30265 16.525715C33.030148 14.323132 35.13464 12.611002 37.77774 12.170485C39.294579 9.9188566 42.866867 9.7717209 44.824223 10.996072C46.488197 12.02335 47.369232 14.127842 47.222988 15.449392C46.586288 15.400347 46.145775 15.743665 46.047684 16.134245C45.362831 18.923588 42.132969 22.349632 46.68438 27.977365C51.23579 33.605099 47.369232 38.156513 45.608059 39.037544C39.441715 42.170208 37.532513 38.646072 33.275372 40.799614C30.485138 42.218361 31.465153 45.742496 28.870207 45.791542C26.863804 45.840584 27.793882 42.023071 24.857403 41.876827C22.998137 41.92498 22.851 44.910507 21.823723 46.720726C21.040781 48.43375 19.376804 49.755299 17.957163 48.335659C16.586567 46.916908 17.467602 44.519035 17.516647 42.904106C17.614737 38.989391 13.11148 44.46999 10.665453 45.497269C8.3647785 46.427345 6.5545578 45.644405 5.7225699 44.176609C4.8415365 42.707924 6.4074216 41.191082 7.288455 40.163807C8.1694889 39.08659 10.028754 37.276371 9.4910383 35.709595C8.9033861 33.997463 6.5545578 34.437981 5.2330079 34.682316C3.8142588 34.976589 2.0031466 35.709595 0.77968723 34.63327C-0.39472672 33.605099 -0.10134616 31.991062 0.73064184 30.914738C2.7370439 28.221701 7.142211 27.43965 7.6308813 23.475C8.0713978 19.756468 1.3673401 20.294184 2.1012373 17.113369C2.7370439 14.421223 7.6799264 15.693727 9.5400839 15.400347C13.650979 14.764541 10.469271 11.09327 9.4419937 9.1359138C8.7080965 7.7662101 5.1839623 2.2847199 6.9460292 0.91412461C10.812589 -2.1195552 17.712828 12.12144 19.523048 3.3610432C19.768276 2.2356746 19.768276 0.76788014 20.94269 0.18022732C22.410484 -0.50462455 24.17255 0.91412461 25.151674 1.8932488C28.381536 5.0250192 29.55595 9.7226753 29.457859 14.078796C29.408813 16.819096 27.304321 23.18162 30.289846 24.992731C32.638676 26.41148 34.30265 24.405079 35.673248 22.544922C36.749569 21.077127 39.930386 18.434027 38.854061 16.868141C38.169212 15.840863 36.260006 15.595636 34.93935 15.547482C34.890305 15.547482 34.498833 15.743665 34.596031 16.525715Z"/>
</svg>
