<svg width="18" height="18" viewBox="0 0 18 18" fill="none" xmlns="http://www.w3.org/2000/svg">
<path d="M8 2C8.55222 2.00007 9 2.44776 9 3C9 3.55224 8.55222 3.99993 8 4H6.2207L5.55371 6H14.2041L10.7041 10H11.3369C11.8987 8.81755 13.1038 8 14.5 8C16.433 8 18 9.567 18 11.5C18 13.433 16.433 15 14.5 15C12.7368 15 11.2788 13.6961 11.0361 12H6.96387C6.72121 13.6961 5.2632 15 3.5 15C1.567 15 0 13.433 0 11.5C0 9.82374 1.17838 8.42268 2.75195 8.08008L4.7793 2H8ZM3.5 10C2.67157 10 2 10.6716 2 11.5C2 12.3284 2.67157 13 3.5 13C4.32843 13 5 12.3284 5 11.5C5 10.6716 4.32843 10 3.5 10ZM14.5 10C13.6716 10 13 10.6716 13 11.5C13 12.3284 13.6716 13 14.5 13C15.3284 13 16 12.3284 16 11.5C16 10.6716 15.3284 10 14.5 10ZM4.80273 8.25098C5.62103 8.57938 6.28662 9.20754 6.66309 10H8.0459L9.7959 8H4.88672L4.80273 8.25098Z" fill="#333333"/>
</svg>
