<svg width="18" height="18" viewBox="0 0 18 18" fill="none" xmlns="http://www.w3.org/2000/svg">
<path d="M4.11816 2.97266L8.26172 6.30469C8.43898 6.0251 8.75092 5.83894 9.10645 5.83887C9.65859 5.83887 10.1062 6.28677 10.1064 6.83887C10.1064 7.1172 9.99209 7.36851 9.80859 7.5498L14.4531 11.2852L15.0381 11.7559L14.0977 12.9238L13.5127 12.4541L12.291 11.4717C11.6695 12.2863 10.7573 13.4309 9.54297 14.9082L9.00098 15.5674L8.41699 14.9463C5.24925 11.5779 3.64862 8.99915 3.64844 7.07715C3.64844 6.31423 3.81204 5.57481 4.12012 4.89941L3.17871 4.1416L2.59375 3.6709L3.53418 2.50293L4.11816 2.97266ZM5.34277 5.88184C5.21512 6.26208 5.14844 6.66443 5.14844 7.07715C5.14864 8.35414 6.32629 10.3748 8.7041 13.04L8.92871 13.29L9.05664 13.1338C9.94773 12.0405 10.6354 11.1701 11.1221 10.5312L5.34277 5.88184ZM9.16309 1.68262C11.9174 1.68272 14.1483 3.92877 14.1484 6.69727C14.1484 7.2255 14.0247 7.79738 13.7842 8.41504C13.7432 8.52036 13.6983 8.62711 13.6504 8.73535L12.2793 8.12891C12.3182 8.04106 12.354 7.95507 12.3867 7.87109C12.5639 7.41605 12.6484 7.02332 12.6484 6.69727C12.6483 4.75484 11.0866 3.18272 9.16309 3.18262C8.41621 3.18265 7.70605 3.41912 7.11523 3.85254C7.03799 3.90922 6.96305 3.96934 6.89062 4.03223L5.90723 2.90039C6.01078 2.81046 6.11798 2.72466 6.22852 2.64355C7.07438 2.02302 8.09414 1.68266 9.16309 1.68262Z" fill="#333333"/>
</svg>
