<svg width="18" height="18" viewBox="0 0 18 18" fill="none" xmlns="http://www.w3.org/2000/svg">
<path d="M9.30859 8.4209C11.9319 8.4209 14.0586 10.5475 14.0586 13.1709V15.8203H3.94043V13.1709C3.94043 10.5477 6.06728 8.42113 8.69043 8.4209H9.30859ZM3.47559 10.1797C2.89487 10.7783 2.57032 11.58 2.57031 12.4141V15.793H0V13.6553C0.000144469 11.7358 1.55614 10.1798 3.47559 10.1797ZM14.5225 10.1797C16.4426 10.1797 17.9997 11.7361 18 13.6562V15.793H15.4287V12.4141C15.4287 11.58 15.1033 10.7783 14.5225 10.1797ZM8.69043 9.9209C6.8957 9.92113 5.44043 11.3761 5.44043 13.1709V14.3203H12.5586V13.1709C12.5586 11.4379 11.2023 10.0214 9.49316 9.92578L9.30859 9.9209H8.69043ZM3.35449 5.73633C4.45901 5.73638 5.35448 6.6318 5.35449 7.73633C5.35449 8.84086 4.45901 9.73627 3.35449 9.73633C2.24992 9.73633 1.35449 8.8409 1.35449 7.73633C1.3545 6.63177 2.24993 5.73633 3.35449 5.73633ZM14.3545 5.73633C15.459 5.73638 16.3545 6.6318 16.3545 7.73633C16.3545 8.84086 15.459 9.73627 14.3545 9.73633C13.2499 9.73633 12.3545 8.8409 12.3545 7.73633C12.3545 6.63177 13.2499 5.73633 14.3545 5.73633ZM9 2.17969C10.6569 2.17969 12 3.52283 12 5.17969C12 6.83654 10.6569 8.17969 9 8.17969C7.34315 8.17969 6 6.83654 6 5.17969C6 3.52283 7.34315 2.17969 9 2.17969ZM9 3.67969C8.17157 3.67969 7.5 4.35126 7.5 5.17969C7.5 6.00811 8.17157 6.67969 9 6.67969C9.82843 6.67969 10.5 6.00811 10.5 5.17969C10.5 4.35126 9.82843 3.67969 9 3.67969Z" fill="#333333"/>
</svg>
