<svg width="18" height="18" viewBox="0 0 18 18" fill="none" xmlns="http://www.w3.org/2000/svg">
<path fill-rule="evenodd" clip-rule="evenodd" d="M3.46973 5.00586H4.32227V0.731445H5.82227V5.00586H6.5752V0.731445H8.0752V6.31543H8.06934V6.3291C8.0691 7.50171 7.0857 8.49531 6.02539 8.83398L5.88086 8.87402L5.94434 16.9551L4.44434 16.9658L4.38086 8.85254L4.30957 8.83301C3.22475 8.49984 2.04431 7.52093 1.97363 6.34473L1.97266 6.31543H1.96973V6.19531L1.96875 6.17578V5.00586H1.96973V0.731445H3.46973V5.00586ZM12.7246 0.538086C14.0019 0.538267 15.0727 1.50481 15.2031 2.77539L15.5225 5.90332C15.666 7.30809 14.7689 8.57923 13.4551 8.9502L13.4287 8.95703L13.4912 16.9541L11.9912 16.9658L11.9287 8.93457L11.8262 8.90234C10.6997 8.51291 9.89939 7.44941 9.88379 6.21289L9.88672 6.04297C9.88946 5.98283 9.89389 5.92215 9.90039 5.8623L10.2363 2.77051C10.3745 1.50083 11.4474 0.538122 12.7246 0.538086ZM12.7246 2.03809C12.2131 2.03812 11.783 2.42416 11.7275 2.93262L11.3916 6.02441C11.3885 6.05301 11.3861 6.08259 11.3848 6.11133C11.3503 6.87628 11.943 7.52476 12.708 7.55957L12.6914 7.55664H12.7432L12.8125 7.55176C13.5619 7.47503 14.107 6.80506 14.0303 6.05566L13.7109 2.92871C13.659 2.42325 13.2327 2.03827 12.7246 2.03809ZM3.9043 6.55566C4.04135 6.99631 4.4102 7.33576 4.86816 7.42969L4.98438 7.44629L5.14551 7.45508H5.26465L5.34766 7.45117C5.83244 7.39861 6.2257 7.03932 6.32812 6.57129L6.33789 6.50586H3.89062L3.9043 6.55566Z" fill="#333333"/>
</svg>
