<svg width="18" height="18" viewBox="0 0 18 18" fill="none" xmlns="http://www.w3.org/2000/svg">
<path d="M9.27148 0.786133C12.8613 0.786133 15.7715 3.60457 15.7715 7.08105C15.7714 9.3987 13.6047 12.7171 9.27148 17.0361C4.93827 12.7171 2.7716 9.3987 2.77148 7.08105C2.77148 3.60457 5.68163 0.786133 9.27148 0.786133ZM9.27148 2.28613C6.49948 2.28613 4.27148 4.44396 4.27148 7.08105C4.27161 8.67993 5.86811 11.2935 9.11523 14.7275L9.27148 14.8916L9.42773 14.7275C12.5795 11.3944 14.1764 8.83421 14.2676 7.22461L14.2715 7.08105C14.2715 4.44396 12.0435 2.28613 9.27148 2.28613ZM10.5391 6.84277V11.8428H8.00977V6.84277H10.5391ZM10.5361 3.43848V5.81641H8.00684V3.43848H10.5361Z" fill="#333333"/>
</svg>
