<svg width="18" height="18" viewBox="0 0 18 18" fill="none" xmlns="http://www.w3.org/2000/svg">
<path d="M12.2451 1C13.8847 1 15.2155 2.31528 15.2432 3.94824L17.0879 4.87891L17.5 5.08594V7.30566C17.5 7.71988 17.1642 8.05566 16.75 8.05566C16.3358 8.05566 16 7.71988 16 7.30566V6.00977L15.2451 5.62793V12C15.2451 13.1078 14.6432 14.0722 13.75 14.5918V16C13.75 16.5523 13.3023 17 12.75 17H11.75C11.1977 17 10.75 16.5523 10.75 16V15H6.75V16C6.75 16.5523 6.30228 17 5.75 17H4.75C4.19772 17 3.75 16.5523 3.75 16V14.4941C2.94528 13.9561 2.41406 13.0407 2.41406 12V5.58789L1.5 6.01953V7.30566C1.5 7.68536 1.21764 7.99917 0.851562 8.04883L0.75 8.05566C0.335786 8.05566 0 7.71988 0 7.30566V5.06836L0.430664 4.86523L2.41504 3.92969C2.45239 2.3054 3.78083 1.00014 5.41406 1H12.2451ZM3.91406 12C3.91406 12.8283 4.58576 13.4999 5.41406 13.5H12.2451C13.0735 13.5 13.7451 12.8284 13.7451 12V9.75H3.91406V12ZM5.97656 10.4619C6.52881 10.462 6.97656 10.9097 6.97656 11.4619C6.97644 12.0141 6.52874 12.4619 5.97656 12.4619C5.42436 12.4619 4.97669 12.0141 4.97656 11.4619C4.97656 10.9096 5.42428 10.4619 5.97656 10.4619ZM11.6025 10.4619C12.1548 10.4619 12.6025 10.9096 12.6025 11.4619C12.6024 12.0141 12.1547 12.4619 11.6025 12.4619C11.0504 12.4618 10.6027 12.014 10.6025 11.4619C10.6025 10.9097 11.0503 10.462 11.6025 10.4619ZM3.91406 8.25H13.7451V5.28809H3.91406V8.25ZM5.41406 2.5C4.65776 2.50013 4.0337 3.0602 3.93066 3.78809H13.7285C13.6254 3.06015 13.0015 2.5 12.2451 2.5H5.41406Z" fill="#333333"/>
</svg>
