<svg width="18" height="18" viewBox="0 0 18 18" fill="none" xmlns="http://www.w3.org/2000/svg">
<path d="M10.7363 3.77637C10.9284 3.69982 11.1467 3.79338 11.2236 3.98535L11.7109 5.2041L11.7324 5.1875C12.0837 4.89834 12.609 4.98154 12.8535 5.36523C13.0532 5.67868 12.9961 6.09049 12.7188 6.33789L12.3096 6.70215L15.7236 15.2354C15.8006 15.4276 15.7069 15.6467 15.5146 15.7236C15.3225 15.8005 15.1044 15.7066 15.0273 15.5146L11.7148 7.2334L10.7764 8.07129L8.65723 6.96582V9.22363L10.5928 11.9619C10.7121 12.1307 10.7763 12.3324 10.7764 12.5391V15.3779H11.0547C11.6068 15.3782 12.0547 15.8258 12.0547 16.3779V16.7803H9.0625V13.2598L7.92188 12.0781V13.1689C7.92182 13.4765 7.78035 13.7666 7.53809 13.9561L5.51562 15.5381L5.68066 15.8799C5.92027 16.3771 5.71177 16.9747 5.21484 17.2148L4.73828 17.4453L3.37891 14.998L6.11426 12.8125L7.6582 11.8057L6.59375 10.7031C6.40978 10.5126 6.26725 10.2888 6.17188 10.0469H5.18359C4.56253 10.0467 4.05878 9.54293 4.05859 8.92188V5.97168C4.05859 5.35047 4.56242 4.84685 5.18359 4.84668H7.35352V4.90137C8.09112 4.99968 8.79959 5.26611 9.41992 5.6875L10.3535 6.32227L11.1025 5.7041L10.5273 4.26465C10.4504 4.07235 10.544 3.85328 10.7363 3.77637ZM5.18359 5.59668C4.97663 5.59685 4.80859 5.76468 4.80859 5.97168V8.92188C4.80878 9.12872 4.97675 9.2967 5.18359 9.29688H6.03223V5.59668H5.18359ZM7.125 0.75C8.16053 0.75 9 1.58947 9 2.625C9 3.66053 8.16053 4.5 7.125 4.5C6.08958 4.49987 5.25 3.66045 5.25 2.625C5.25 1.58955 6.08958 0.750134 7.125 0.75Z" fill="currentColor"/>
</svg>
