<svg width="18" height="18" viewBox="0 0 18 18" fill="none" xmlns="http://www.w3.org/2000/svg">
<path d="M9.28516 3C10.771 3.00009 12.1217 3.79064 12.8789 5.05469L11.5928 5.8252C11.1026 5.00694 10.2358 4.50009 9.28516 4.5H8.69727C7.53085 4.50015 6.5791 5.47147 6.5791 6.67676V7.42676H5.57031C3.87814 7.42699 2.50024 8.83256 2.5 10.5742C2.5 12.3161 3.87799 13.7224 5.57031 13.7227H10.293V15.2227H5.57031C3.04276 15.2224 1 13.1379 1 10.5742C1.00022 8.22429 2.71722 6.27696 4.9502 5.96875L5.15137 5.94531L5.15723 5.91309C5.49003 4.31262 6.84807 3.09309 8.50488 3.00488L8.69727 3H9.28516ZM13.5107 6.09863C15.8521 6.09887 17.75 8.03606 17.75 10.4248C17.7499 12.8134 15.852 14.7498 13.5107 14.75C11.1693 14.75 9.27065 12.8136 9.27051 10.4248C9.27051 8.03592 11.1692 6.09863 13.5107 6.09863ZM12.6797 7.67676V11.6426H16.207V10.1426L14.1797 10.1416V7.67676H12.6797Z" fill="#333333"/>
</svg>
