<svg width="18" height="18" viewBox="0 0 18 18" fill="none" xmlns="http://www.w3.org/2000/svg">
<path d="M10.5088 16.2393H7.98047V13.8613H10.5088V16.2393Z" fill="#333333"/>
<path d="M9.54492 1.76074C11.7374 1.76074 13.5163 3.53008 13.5322 5.71875L13.6729 5.72363C15.6012 5.82138 17.1474 7.3676 17.2451 9.2959L17.25 9.48926C17.25 11.572 15.5613 13.2607 13.4785 13.2607H12.334V11.7607H13.4785C14.7329 11.7607 15.75 10.7436 15.75 9.48926C15.7498 8.23506 14.7328 7.21875 13.4785 7.21875H12.0332V5.74805C12.033 4.37431 10.9187 3.26074 9.54492 3.26074H9.0791C7.96283 3.26074 7.05762 4.16595 7.05762 5.28223V6.03223H5.02832C3.49423 6.03223 2.25012 7.27551 2.25 8.80957C2.25 10.3437 3.49416 11.5879 5.02832 11.5879H5.92676V13.0879H5.02832C2.66573 13.0879 0.75 11.1722 0.75 8.80957C0.750116 6.44708 2.6658 4.53223 5.02832 4.53223H5.63672C5.97097 3.00618 7.28673 1.85209 8.88574 1.76562L9.0791 1.76074H9.54492Z" fill="#333333"/>
<path d="M10.5107 12.835H7.98242V7.83496H10.5107V12.835Z" fill="#333333"/>
</svg>
